<?xml version="1.0" encoding="UTF-8"?>
<svg width="178px" height="35px" viewBox="0 0 178 35" version="1.1" xmlns="http://www.w3.org/2000/svg" xmlns:xlink="http://www.w3.org/1999/xlink">
    <!-- Generator: Sketch 52.2 (67145) - http://www.bohemiancoding.com/sketch -->
    <title>Logo+txt</title>
    <desc>Created with Sketch.</desc>
    <defs>
        <linearGradient x1="0%" y1="50%" x2="100%" y2="50%" id="linearGradient-1">
            <stop stop-color="#311CA0" offset="0%"></stop>
            <stop stop-color="#0A60C4" offset="100%"></stop>
        </linearGradient>
    </defs>
    <g id="Page-1" stroke="none" stroke-width="1" fill="none" fill-rule="evenodd">
        <g id="Artboard" transform="translate(-25.000000, -21.000000)">
            <g id="Logo+txt" transform="translate(25.000000, 18.000000)">
                <text id="Acreditador-de-Event" fill="#000000" font-family="OpenSans-Bold, Open Sans" font-size="14" font-weight="bold" line-spacing="20">
                    <tspan x="51" y="15">ACREDITADOR DE </tspan>
                    <tspan x="51" y="35">EVENTOS DUOCUC</tspan>
                </text>
                <g id="LogoQR" transform="translate(0.000000, 3.000000)" fill="url(#linearGradient-1)">
                    <path d="M27.3488372,28.9767442 L24.8662791,28.9767442 C23.9709302,28.9767442 23.2383721,29.7093023 23.2383721,30.6046512 L23.2383721,33.0872093 C23.2383721,33.9825581 23.9709302,34.7151163 24.8662791,34.7151163 L27.3488372,34.7151163 C28.244186,34.7151163 28.9767442,33.9825581 28.9767442,33.0872093 L28.9767442,30.6046512 C28.9767442,29.7093023 28.244186,28.9767442 27.3488372,28.9767442 Z" id="Path"></path>
                    <path d="M33.0872093,23.2383721 L30.6046512,23.2383721 C29.7093023,23.2383721 28.9767442,23.9709302 28.9767442,24.8662791 L28.9767442,27.3488372 C28.9767442,28.244186 29.7093023,28.9767442 30.6046512,28.9767442 L33.0872093,28.9767442 C33.9825581,28.9767442 34.7151163,28.244186 34.7151163,27.3488372 L34.7151163,24.8662791 C34.7151163,23.9709302 33.9825581,23.2383721 33.0872093,23.2383721 Z" id="Path"></path>
                    <path d="M33.0872093,11.7616279 L30.6046512,11.7616279 C29.7093023,11.7616279 28.9767442,11.0290698 28.9767442,10.1337209 L28.9767442,7.65116279 C28.9767442,6.75581395 28.244186,6.02325581 27.3488372,6.02325581 L24.8662791,6.02325581 C23.9709302,6.02325581 23.2383721,6.75581395 23.2383721,7.65116279 L23.2383721,10.1337209 C23.2383721,11.0290698 22.505814,11.7616279 21.6104651,11.7616279 L19.127907,11.7616279 C18.2325581,11.7616279 17.5,11.0290698 17.5,10.1337209 L17.5,7.65116279 C17.5,6.75581395 16.7674419,6.02325581 15.872093,6.02325581 L13.3895349,6.02325581 C12.494186,6.02325581 11.7616279,6.75581395 11.7616279,7.65116279 L11.7616279,11.7616279 L11.7616279,15.872093 C11.7616279,16.7674419 11.0290698,17.5 10.1337209,17.5 L6.02325581,17.5 L1.9127907,17.5 C1.01744186,17.5 0.284883721,18.2325581 0.284883721,19.127907 L0.284883721,23.2383721 L0.284883721,28.9767442 L0.284883721,33.0872093 C0.284883721,33.9825581 1.01744186,34.7151163 1.9127907,34.7151163 L6.02325581,34.7151163 L11.7616279,34.7151163 L15.872093,34.7151163 C16.7674419,34.7151163 17.5,33.9825581 17.5,33.0872093 L17.5,30.6046512 C17.5,29.7093023 18.2325581,28.9767442 19.127907,28.9767442 L21.6104651,28.9767442 C22.505814,28.9767442 23.2383721,28.244186 23.2383721,27.3488372 L23.2383721,24.8662791 C23.2383721,23.9709302 22.505814,23.2383721 21.6104651,23.2383721 L19.127907,23.2383721 C18.2325581,23.2383721 17.5,22.505814 17.5,21.6104651 L17.5,19.127907 C17.5,18.2325581 18.2325581,17.5 19.127907,17.5 L21.6104651,17.5 C22.505814,17.5 23.2383721,18.2325581 23.2383721,19.127907 L23.2383721,21.6104651 C23.2383721,22.505814 23.9709302,23.2383721 24.8662791,23.2383721 L27.3488372,23.2383721 C28.244186,23.2383721 28.9767442,22.505814 28.9767442,21.6104651 L28.9767442,19.127907 C28.9767442,18.2325581 29.7093023,17.5 30.6046512,17.5 L33.0872093,17.5 C33.9825581,17.5 34.7151163,16.7674419 34.7151163,15.872093 L34.7151163,13.3895349 C34.7151163,12.494186 33.9825581,11.7616279 33.0872093,11.7616279 Z M13.5930233,29.1395349 C13.5930233,30.0348837 12.8604651,30.7674419 11.9651163,30.7674419 L5.86046512,30.7674419 C4.96511628,30.7674419 4.23255814,30.0348837 4.23255814,29.1395349 L4.23255814,23.0348837 C4.23255814,22.1395349 4.96511628,21.4069767 5.86046512,21.4069767 L11.9651163,21.4069767 C12.8604651,21.4069767 13.5930233,22.1395349 13.5930233,23.0348837 L13.5930233,29.1395349 Z" id="Shape" fill-rule="nonzero"></path>
                    <path d="M9.56395349,23.8081395 L8.22093023,23.8081395 C7.3255814,23.8081395 6.59302326,24.5406977 6.59302326,25.4360465 L6.59302326,26.7790698 C6.59302326,27.6744186 7.3255814,28.4069767 8.22093023,28.4069767 L9.56395349,28.4069767 C10.4593023,28.4069767 11.1918605,27.6744186 11.1918605,26.7790698 L11.1918605,25.4360465 C11.1918605,24.5406977 10.4593023,23.8081395 9.56395349,23.8081395 Z" id="Path"></path>
                    <path d="M33.0872093,0.284883721 L30.6046512,0.284883721 C29.7093023,0.284883721 28.9767442,1.01744186 28.9767442,1.9127907 L28.9767442,4.39534884 C28.9767442,5.29069767 29.7093023,6.02325581 30.6046512,6.02325581 L33.0872093,6.02325581 C33.9825581,6.02325581 34.7151163,5.29069767 34.7151163,4.39534884 L34.7151163,1.9127907 C34.7151163,1.01744186 33.9825581,0.284883721 33.0872093,0.284883721 Z" id="Path"></path>
                    <path d="M19.127907,6.02325581 L21.6104651,6.02325581 C22.505814,6.02325581 23.2383721,5.29069767 23.2383721,4.39534884 L23.2383721,1.9127907 C23.2383721,1.01744186 22.505814,0.284883721 21.6104651,0.284883721 L19.127907,0.284883721 C18.2325581,0.284883721 17.5,1.01744186 17.5,1.9127907 L17.5,4.39534884 C17.5,5.29069767 18.2325581,6.02325581 19.127907,6.02325581 Z" id="Path"></path>
                    <path d="M1.9127907,11.7616279 L4.39534884,11.7616279 C5.29069767,11.7616279 6.02325581,11.0290698 6.02325581,10.1337209 L6.02325581,7.65116279 C6.02325581,6.75581395 6.75581395,6.02325581 7.65116279,6.02325581 L10.1337209,6.02325581 C11.0290698,6.02325581 11.7616279,5.29069767 11.7616279,4.39534884 L11.7616279,1.9127907 C11.7616279,1.01744186 11.0290698,0.284883721 10.1337209,0.284883721 L6.02325581,0.284883721 L1.9127907,0.284883721 C1.01744186,0.284883721 0.284883721,1.01744186 0.284883721,1.9127907 L0.284883721,6.02325581 L0.284883721,10.1337209 C0.284883721,11.0290698 1.01744186,11.7616279 1.9127907,11.7616279 Z" id="Path"></path>
                </g>
            </g>
        </g>
    </g>
</svg>