<?xml version="1.0" encoding="UTF-8"?>
<svg width="481px" height="460px" viewBox="0 0 481 460" version="1.1" xmlns="http://www.w3.org/2000/svg" xmlns:xlink="http://www.w3.org/1999/xlink">
    <!-- Generator: Sketch 48.2 (47327) - http://www.bohemiancoding.com/sketch -->
    <title>LogoDuoc50svg</title>
    <desc>Created with Sketch.</desc>
    <defs></defs>
    <g id="Page-1" stroke="none" stroke-width="1" fill="none" fill-rule="evenodd">
        <g id="LogoDuoc50">
            <polygon id="Path-4" fill="#F2CF1B" points="99 149.413119 134.246755 116 135 181.534865 99 207"></polygon>
            <path d="M99,206.421785 C119.715693,182.885263 150.284495,168 184.380943,168 C201.787147,168 218.274015,171.879238 233,178.808337 L217.462752,210.108375 C207.440407,205.42057 196.222903,202.796614 184.380943,202.796614 C161.083398,202.796614 140.202842,212.952775 126.085087,229 L99,206.421785 Z" id="Combined-Shape" fill="#2B347F"></path>
            <polygon id="Triangle" fill="#E3412C" points="276 82 148 145 148 82"></polygon>
            <circle id="Oval" fill="#F29401" cx="348" cy="154" r="75"></circle>
            <path d="" id="Path-2" stroke="#979797"></path>
            <path d="M233.936277,179 C265.113401,194.324152 288.186726,223.60418 295,258.687096 L258.613788,265 C254.148128,241.340233 238.816575,221.517639 218,210.910937 L233.936277,179 Z" id="Combined-Shape" fill="#199C7C"></path>
            <path d="M295.975798,259 C297.304597,265.940052 298,273.103038 298,280.427362 C298,307.536034 288.473837,332.434562 272.565384,352 L243,327.425196 C253.787031,314.159556 260.244777,297.287965 260.244777,278.920859 C260.244777,274.372693 259.848798,269.91623 259.089159,265.583515 L295.975798,259 Z" id="Combined-Shape" fill="#2B347F"></path>
            <path d="M144.000003,382.602328 L156.195378,348.027076 C159.340176,349.447293 162.600624,350.65571 165.958647,351.634206 L152.759537,385.833031 C149.782566,384.877698 146.86072,383.798791 144,382.602326 Z M173.402484,390.310492 L174.949549,353.656756 C178.086537,354.160127 181.288717,354.467719 184.543234,354.566642 L182.508499,391 C179.439611,390.894445 176.402613,390.662944 173.402484,390.310492 Z M202.141285,389.939072 L194.75106,354.187702 C198.260209,353.817889 201.697004,353.204536 205.04433,352.364807 L211.040041,388.279385 C208.116474,388.951043 205.148517,389.505989 202.141307,389.939069 Z M229.680588,382.187601 L214.248401,349.40463 C217.239667,348.221927 220.136536,346.851295 222.924537,345.307244 L238.396349,377.976283 C235.563175,379.503124 232.655637,380.909187 229.680588,382.187601 Z M255.123174,366.883124 L231.358722,339.865245 C234.179157,337.764822 236.846856,335.469805 239.342068,333 L262,360.877667 C259.792183,362.972134 257.497932,364.975934 255.123174,366.883124 Z" id="Combined-Shape" fill="#2B347F"></path>
            <path d="M240,168 C276.429688,188.505294 298.429688,218.171961 306,257" id="Path-7" stroke="#000000" stroke-width="3"></path>
            <path d="M321.952538,255 C326.51054,300.091885 316.193027,337.091885 291,366" id="Path-11" stroke="#000000" stroke-width="3"></path>
            <path d="M66,180 L282,361" id="Path-12" stroke="#000000" stroke-width="2"></path>
            <path d="M280,86 L134,377" id="Path-13" stroke="#000000" stroke-width="2"></path>
            <path d="M184,279 L410,239" id="Path-14" stroke="#000000" stroke-width="2"></path>
            <path d="M125.149975,230 C114.17554,241.348029 108.458881,257.212927 108,277.594694" id="Path-16" stroke="#000000" stroke-width="2"></path>
            <path d="M99.1499753,208 C82.0787769,227.195364 73.5431777,250.473156 73.5431777,277.833375" id="Path-16-Copy" stroke="#000000" stroke-width="2"></path>
        </g>
    </g>
</svg>